<svg width="117.33125px" height="145.76000366210937px" xmlns="http://www.w3.org/2000/svg" viewBox="191.334375 2.1199981689453153 117.33125 145.76000366210937" style="background: none;" preserveAspectRatio="xMidYMid"><defs><filter id="editing-vr"><feFlood flood-color="#ffffff" flood-opacity="0.7" result="c1"></feFlood><feFlood flood-color="#f22700" flood-opacity="0.7" result="c3"></feFlood><feComposite operator="in" in="c1" in2="SourceAlpha" result="text-c1"></feComposite><feComposite operator="in" in="c3" in2="SourceAlpha" result="text-c3"></feComposite><feOffset in="text-c1" dx="4" dy="-4" result="text1"></feOffset><feOffset in="text-c3" dx="-4" dy="4" result="text3"></feOffset><feBlend in="SourceGraphic" in2="text1" mode="multiply" result="text4"></feBlend><feBlend in="text4" in2="text3" mode="multiply"></feBlend></filter></defs><g filter="url(#editing-vr)"><g transform="translate(218.53149557113647, 108.54000091552734)"><path d="M24.88-23.14L24.88-23.14Q24.10-19.31 22.97-15.18L22.97-15.18L22.97-15.18Q21.84-11.05 19.97-7.70L19.97-7.70L19.97-7.70Q18.10-4.35 15.44-2.13L15.44-2.13L15.44-2.13Q12.79 0.09 9.14 0.09L9.14 0.09L9.14 0.09Q6.70 0.09 3.87-0.96L3.87-0.96L3.87-0.96Q1.04-2.00-2.35-4.52L-2.35-4.52L3.65-17.92L3.65-17.92Q4.09-17.05 5.35-16.40L5.35-16.40L5.35-16.40Q6.61-15.75 8.09-15.75L8.09-15.75L8.09-15.75Q9.14-15.75 9.96-17.49L9.96-17.49L9.96-17.49Q10.79-19.23 11.40-21.53L11.40-21.53L11.40-21.53Q12.01-23.84 12.35-26.27L12.35-26.27L12.35-26.27Q12.70-28.71 12.88-30.19L12.88-30.19L12.88-30.19Q14.53-38.63 16.01-47.02L16.01-47.02L16.01-47.02Q17.49-55.42 19.49-63.77L19.49-63.77L19.49-63.77Q23.40-64.12 27.19-64.86L27.19-64.86L27.19-64.86Q30.97-65.60 34.80-66.64L34.80-66.64L34.80-66.64Q33.50-62.21 32.10-56.55L32.10-56.55L32.10-56.55Q30.71-50.90 29.41-44.98L29.41-44.98L29.41-44.98Q28.10-39.06 26.93-33.36L26.93-33.36L26.93-33.36Q25.75-27.67 24.88-23.14L24.88-23.14ZM68.56-44.46L68.56-44.46Q68.56-39.93 67.25-34.84L67.25-34.84L67.25-34.84Q65.95-29.75 63.60-24.75L63.60-24.75L63.60-24.75Q61.25-19.75 57.81-15.18L57.81-15.18L57.81-15.18Q54.38-10.61 50.03-7.18L50.03-7.18L50.03-7.18Q45.68-3.74 40.50-1.65L40.50-1.65L40.50-1.65Q35.32 0.44 29.49 0.44L29.49 0.44L29.49 0.44Q28.28 0.44 27.06 0.30L27.06 0.30L27.06 0.30Q25.84 0.17 24.62 0L24.62 0L24.62 0Q26.97-12.01 29.23-23.40L29.23-23.40L29.23-23.40Q30.10-28.19 31.06-33.36L31.06-33.36L31.06-33.36Q32.02-38.54 32.89-43.59L32.89-43.59L32.89-43.59Q33.76-48.63 34.58-53.24L34.58-53.24L34.58-53.24Q35.41-57.86 35.93-61.60L35.93-61.60L35.93-61.60Q39.67-62.29 43.50-62.90L43.50-62.90L43.50-62.90Q47.33-63.51 51.33-63.51L51.33-63.51L51.33-63.51Q56.03-63.51 59.29-62.03L59.29-62.03L59.29-62.03Q62.55-60.55 64.60-57.94L64.60-57.94L64.60-57.94Q66.64-55.33 67.60-51.85L67.60-51.85L67.60-51.85Q68.56-48.37 68.56-44.46L68.56-44.46ZM48.02-51.24L48.02-51.24Q47.07-46.11 46.02-41.41L46.02-41.41L46.02-41.41Q44.98-36.71 43.94-31.93L43.94-31.93L43.94-31.93Q42.89-27.14 41.85-21.92L41.85-21.92L41.85-21.92Q40.80-16.70 39.85-10.53L39.85-10.53L39.85-10.53Q41.93-11.92 43.89-14.31L43.89-14.31L43.89-14.31Q45.85-16.70 47.59-19.84L47.59-19.84L47.59-19.84Q49.33-22.97 50.76-26.45L50.76-26.45L50.76-26.45Q52.20-29.93 53.24-33.23L53.24-33.23L53.24-33.23Q54.29-36.54 54.85-39.41L54.85-39.41L54.85-39.41Q55.42-42.28 55.42-44.37L55.42-44.37L55.42-44.37Q55.42-47.59 53.64-49.42L53.64-49.42L53.64-49.42Q51.85-51.24 48.02-51.24L48.02-51.24Z" fill="#0a0a0a"></path></g></g><style>text {
  font-size: 64px;
  font-family: Arial Black;
  dominant-baseline: central;
  text-anchor: middle;
}</style></svg>